<svg width="141" height="39" viewBox="0 0 171 69" fill="none" xmlns="http://www.w3.org/2000/svg">
<path d="M0.0320003 0.0879974H63.008L31.52 68.344L0.0320003 0.0879974ZM31.52 59.896L57.536 3.64H5.6L31.52 59.896ZM75.8945 67.864C74.3585 67.864 73.0145 67.32 71.8625 66.232C70.7105 65.144 70.1345 63.832 70.1345 62.296C70.1345 60.696 70.7105 59.352 71.8625 58.264C73.0145 57.112 74.3585 56.536 75.8945 56.536C77.4305 56.536 78.7745 57.112 79.9265 58.264C81.0785 59.352 81.6545 60.696 81.6545 62.296C81.6545 63.832 81.0785 65.144 79.9265 66.232C78.7745 67.32 77.4305 67.864 75.8945 67.864ZM93.419 0.0879974H97.259L120.587 41.368L143.819 0.0879974H147.371V66.904H93.419V0.0879974ZM96.971 63.448H143.819V7.288L122.219 45.304H118.859L96.971 6.712V63.448ZM164.77 67.864C163.234 67.864 161.89 67.32 160.738 66.232C159.586 65.144 159.01 63.832 159.01 62.296C159.01 60.696 159.586 59.352 160.738 58.264C161.89 57.112 163.234 56.536 164.77 56.536C166.306 56.536 167.65 57.112 168.802 58.264C169.954 59.352 170.53 60.696 170.53 62.296C170.53 63.832 169.954 65.144 168.802 66.232C167.65 67.32 166.306 67.864 164.77 67.864Z" fill="white"/>
</svg>
